<?xml version="1.0"?>
<svg version="1.1" xmlns="http://www.w3.org/2000/svg" width="52" height="52" style=""><path fill="#10b981" d="M15,20.1552734375q0-0.205078125,0.28564453125-0.31494140625t0.37353515625-0.10986328125l0.5419921875-0.087890625q0.5419921875-0.087890625,1.0986328125-0.15380859375t1.083984375-0.12451171875q1.8603515625-0.234375,3.720703125-0.46142578125t3.75-0.22705078125q0.146484375,0,0.40283203125,0.0146484375t0.5126953125,0.08056640625t0.439453125,0.18310546875t0.18310546875,0.322265625q0,0.146484375-0.13916015625,0.25634765625t-0.32958984375,0.16845703125t-0.38818359375,0.0732421875t-0.31494140625,0.0146484375l-0.25634765625,0t-0.25634765625-0.05859375q-0.7763671875,0-1.53076171875,0.0732421875t-1.53076171875,0.1318359375q0.205078125,0.234375,0.2197265625,0.6591796875t0.029296875,0.732421875q0,5.185546875,0.0732421875,10.3125t0.1318359375,10.3564453125l0,0.029296875q-0.4833984375,0.4248046875-0.82763671875,0.5419921875t-0.69580078125,0.1171875q-0.3369140625,0-0.68115234375-0.12451171875t-0.82763671875-0.53466796875l0-0.029296875l0.1171875-11.4990234375q0-1.142578125-0.029296875-2.51953125t-0.029296875-2.79052734375t0.0439453125-2.73193359375t0.234375-2.2998046875q-0.8642578125,0.087890625-1.8310546875,0.263671875q-0.8349609375,0.146484375-1.5966796875,0.146484375l-0.263671875,0q-0.05859375,0-0.34423828125,0.0146484375t-0.5859375-0.0146484375t-0.5419921875-0.1171875t-0.24169921875-0.29296875z"/><path fill="#" d=""/></svg>
