<?xml version="1.0"?>
<svg version="1.1" xmlns="http://www.w3.org/2000/svg" width="200" height="60" style=""><path fill="#10b981" d="M15,21.8173828125q0-0.287109375,0.39990234375-0.44091796875t0.52294921875-0.15380859375l0.7587890625-0.123046875q0.7587890625-0.123046875,1.5380859375-0.21533203125t1.517578125-0.17431640625q2.6044921875-0.328125,5.208984375-0.64599609375t5.25-0.31787109375q0.205078125,0,0.56396484375,0.0205078125t0.7177734375,0.11279296875t0.615234375,0.25634765625t0.25634765625,0.451171875q0,0.205078125-0.19482421875,0.35888671875t-0.46142578125,0.23583984375t-0.54345703125,0.1025390625t-0.44091796875,0.0205078125l-0.35888671875,0t-0.35888671875-0.08203125q-1.0869140625,0-2.14306640625,0.1025390625t-2.14306640625,0.1845703125q0.287109375,0.328125,0.3076171875,0.9228515625t0.041015625,1.025390625q0,7.259765625,0.1025390625,14.4375t0.1845703125,14.4990234375l0,0.041015625q-0.6767578125,0.5947265625-1.15869140625,0.7587890625t-0.97412109375,0.1640625q-0.4716796875,0-0.95361328125-0.17431640625t-1.15869140625-0.74853515625l0-0.041015625l0.1640625-16.0986328125q0-1.599609375-0.041015625-3.52734375t-0.041015625-3.90673828125t0.0615234375-3.82470703125t0.328125-3.2197265625q-1.2099609375,0.123046875-2.5634765625,0.369140625q-1.1689453125,0.205078125-2.2353515625,0.205078125l-0.369140625,0q-0.08203125,0-0.48193359375,0.0205078125t-0.8203125-0.0205078125t-0.7587890625-0.1640625t-0.33837890625-0.41015625z M35.275458984375,42.8583984375q0-1.88671875,0.44091796875-3.70166015625t0.74853515625-3.61962890625q0.08203125-0.4716796875,0.64599609375-0.58447265625t0.95361328125-0.11279296875q0.6767578125,0,1.0869140625,0.205078125q0.1640625,0.08203125,0.3076171875,0.1845703125t0.1435546875,0.2666015625q0,1.763671875-0.42041015625,3.4453125t-0.42041015625,3.568359375q0,0.6357421875,0.09228515625,1.19970703125t0.17431640625,1.11767578125l0.123046875,0.5947265625q0,0.1640625,0.0205078125,0.287109375t0.0615234375,0.287109375q0,0.369140625-0.52294921875,0.50244140625t-0.91259765625,0.13330078125q-0.5947265625,0-1.09716796875-0.23583984375t-0.78955078125-0.81005859375l-0.287109375-0.5947265625q-0.24609375-0.4716796875-0.24609375-1.05615234375t-0.1025390625-1.07666015625z M36.587958984375,30.5126953125l0-0.3896484375q0-0.9638671875,0.48193359375-1.72265625t1.44580078125-0.7587890625q0.123046875,0,0.23583984375,0.0205078125t0.23583984375,0.0205078125q0.24609375,0.041015625,0.64599609375,0.19482421875t0.39990234375,0.48193359375l0,0.041015625q-0.08203125,0.1640625-0.1025390625,0.33837890625t-0.1025390625,0.29736328125l0.041015625-0.041015625q-0.24609375,0.6357421875-0.39990234375,1.025390625t-0.33837890625,0.62548828125t-0.46142578125,0.33837890625t-0.78955078125,0.1025390625q-0.08203125,0-0.287109375-0.0205078125t-0.44091796875-0.08203125t-0.39990234375-0.1640625t-0.1640625-0.3076171875z M44.281875,38.21337890625q-0.05126953125-0.68701171875,0.08203125-1.26123046875t0.533203125-0.93310546875t1.28173828125-0.35888671875q0.205078125,0,0.50244140625,0.05126953125t0.58447265625,0.13330078125t0.48193359375,0.24609375t0.19482421875,0.451171875l0,2.3173828125q0.7998046875-0.9228515625,1.7431640625-1.32275390625t2.1533203125-0.39990234375q0.9228515625,0,1.8251953125,0.42041015625t1.7021484375,1.11767578125t1.38427734375,1.5380859375t0.85107421875,1.681640625q0.1640625-0.7587890625,0.369140625-1.85595703125t0.60498046875-2.10205078125t1.05615234375-1.72265625t1.7431640625-0.7177734375q1.1689453125,0,1.96875,0.8408203125t1.30224609375,2.18408203125t0.7587890625,3.00439453125t0.37939453125,3.28125t0.123046875,3.02490234375l0,2.20458984375q0,0.24609375-0.1845703125,0.39990234375t-0.46142578125,0.23583984375t-0.57421875,0.1025390625t-0.46142578125,0.0205078125q-0.6357421875,0-1.15869140625-0.19482421875t-0.52294921875-0.99462890625l0-1.845703125t-0.041015625-2.38916015625t-0.1435546875-2.5634765625t-0.2666015625-2.32763671875t-0.42041015625-1.681640625t-0.62548828125-0.65625q-0.5126953125,0-0.73828125,0.57421875t-0.37939453125,1.4560546875t-0.23583984375,1.8662109375t-0.2255859375,1.8662109375t-0.46142578125,1.44580078125t-0.87158203125,0.56396484375q-0.5947265625,0-1.0458984375-0.56396484375t-0.89208984375-1.40478515625t-0.8818359375-1.8046875t-0.97412109375-1.8046875q-0.533203125-0.861328125-1.1484375-1.39453125q-0.5537109375-0.5126953125-1.2509765625-0.4921875l-0.1025390625,0q-0.9228515625,0.041015625-1.44580078125,0.66650390625t-0.7998046875,1.52783203125t-0.33837890625,1.93798828125t-0.0615234375,1.81494140625q0,0.73828125,0.123046875,1.72265625q0.08203125,0.65625,0.08203125,1.2509765625q0,0.3076171875-0.0205078125,0.5947265625q-0.0615234375,0.861328125-0.46142578125,1.44580078125t-1.48681640625,0.58447265625q-0.41015625,0-1.025390625-0.08203125t-0.8203125-0.5537109375q-0.4716796875-0.8408203125-0.7177734375-2.12255859375t-0.369140625-2.6455078125t-0.1435546875-2.70703125t-0.0205078125-2.30712890625q0-0.6767578125-0.05126953125-1.36376953125z M70.145712890625,44.19140625q0-1.435546875,0.31787109375-3.3837890625t1.07666015625-3.69140625t1.99951171875-2.96337890625t3.12744140625-1.22021484375q1.763671875,0,2.6455078125,1.01513671875t0.8818359375,2.73779296875q0,1.1279296875-0.42041015625,2.47119140625t-1.19970703125,2.54296875t-1.845703125,1.99951171875t-2.37890625,0.7998046875l-0.533203125-0.041015625q0,0.5537109375,0.1640625,1.48681640625t0.48193359375,1.85595703125t0.8203125,1.6201171875t1.22021484375,0.697265625q1.0458984375,0,2.009765625-0.8408203125t1.8251953125-1.8662109375t1.599609375-1.8662109375t1.353515625-0.8408203125q0.328125,0,0.6767578125,0.1025390625t0.3896484375,0.57421875q0,0.287109375-0.15380859375,0.4716796875t-0.27685546875,0.41015625q-0.6357421875,1.0869140625-1.38427734375,2.0712890625t-1.69189453125,1.7841796875t-2.06103515625,1.26123046875t-2.47119140625,0.46142578125q-1.763671875,0-2.9326171875-0.62548828125t-1.88671875-1.681640625t-1.03564453125-2.4404296875t-0.31787109375-2.90185546875z M73.816611328125,42.6328125l0.57421875,0.5126953125q0.41015625,0.369140625,0.8203125,0.1640625t0.73828125-0.74853515625t0.60498046875-1.34326171875t0.4921875-1.640625t0.31787109375-1.640625t0.1025390625-1.3330078125l0-0.697265625t-0.0615234375-0.73828125t-0.21533203125-0.58447265625t-0.48193359375-0.29736328125q-0.1025390625-0.0205078125-0.1845703125-0.0205078125q-0.697265625,0-1.189453125,0.8818359375q-0.533203125,0.984375-0.861328125,2.38916015625t-0.4716796875,2.88134765625t-0.1845703125,2.21484375z M87.2834765625,45.5859375l0-1.927734375q0-1.0458984375,0.05126953125-2.96337890625t0.13330078125-4.2041015625t0.2255859375-4.76806640625t0.328125-4.68603515625t0.44091796875-3.94775390625t0.58447265625-2.583984375q0.205078125-0.4716796875,0.6767578125-0.5947265625t0.9228515625-0.123046875q0.7177734375,0,1.26123046875,0.31787109375t0.54345703125,1.15869140625l-0.369140625,0.41015625q-0.7177734375,4.7373046875-0.9228515625,9.515625t-0.287109375,9.556640625q0.5126953125-0.7998046875,1.15869140625-1.56884765625t1.435546875-1.36376953125t1.7021484375-0.95361328125t1.99951171875-0.35888671875q1.39453125,0,2.30712890625,0.8408203125t1.50732421875,2.18408203125t0.8818359375,3.00439453125t0.44091796875,3.322265625t0.21533203125,3.14794921875t0.1845703125,2.47119140625q-0.3896484375,0.533203125-1.1484375,0.533203125l-0.0615234375,0q-0.328125,0-0.7177734375-0.08203125t-0.5126953125-0.41015625l0.041015625,0.041015625q-0.287109375-0.6357421875-0.3896484375-1.83544921875t-0.1640625-2.6455078125t-0.21533203125-2.96337890625t-0.46142578125-2.748046875t-0.90234375-2.0302734375t-1.599609375-0.8408203125l-0.123046875,0q-1.2099609375,0-2.0302734375,0.73828125q-0.861328125,0.779296875-1.39453125,2.05078125t-0.8203125,2.830078125t-0.44091796875,3.00439453125t-0.23583984375,2.625t-0.205078125,1.73291015625q-0.123046875,0.4716796875-0.72802734375,0.62548828125t-1.03564453125,0.15380859375q-1.0048828125,0-1.640625-0.57421875q-0.4716796875-1.1279296875-0.5537109375-2.8095703125t-0.08203125-3.28125z M106.06186523438,41.5458984375q0-0.41015625,0.09228515625-1.0869140625t0.21533203125-1.34326171875t0.287109375-1.24072265625t0.3896484375-0.73828125q0.1640625-0.1640625,0.56396484375-0.328125t0.8408203125-0.23583984375t0.8203125,0.0615234375t0.46142578125,0.54345703125q-0.287109375,0.369140625-0.52294921875,1.26123046875t-0.35888671875,1.97900390625q-0.1025390625,0.9228515625-0.1025390625,1.9072265625l0,0.3486328125q0.0205078125,1.1484375,0.205078125,2.1123046875t0.56396484375,1.58935546875t1.05615234375,0.62548828125q1.435546875,0,2.625-1.32275390625t2.1123046875-3.22998046875t1.6201171875-4.05029296875t1.189453125-3.74267578125q0.123046875-0.4716796875,0.58447265625-0.6357421875t0.99462890625-0.11279296875t0.95361328125,0.25634765625t0.50244140625,0.4921875q-0.41015625,3.4453125-0.64599609375,6.890625t-0.23583984375,6.931640625q0,0.6767578125,0.0615234375,1.24072265625t-0.0615234375,0.9638671875t-0.54345703125,0.6357421875t-1.34326171875,0.23583984375q-0.205078125,0-0.52294921875-0.041015625t-0.65625-0.13330078125t-0.57421875-0.27685546875t-0.23583984375-0.4306640625q0-1.517578125,0.11279296875-3.1171875t0.31787109375-3.0966796875q-0.5537109375,0.7998046875-1.22021484375,1.58935546875t-1.46630859375,1.42529296875t-1.72265625,1.01513671875t-1.9892578125,0.37939453125q-1.517578125,0-2.38916015625-0.7177734375t-1.3125-1.79443359375t-0.5537109375-2.34814453125t-0.11279296875-2.4609375z M125.35294921875,43.1044921875q0-1.599609375,0.33837890625-2.90185546875t1.07666015625-2.20458984375t1.93798828125-1.40478515625t2.92236328125-0.50244140625q0.9638671875,0,1.96875,0.25634765625t1.72265625,0.95361328125q0-0.41015625,0.08203125-1.69189453125t0.205078125-2.98388671875t0.25634765625-3.568359375t0.23583984375-3.4658203125t0.1845703125-2.6865234375t0.123046875-1.23046875q0.205078125-0.5947265625,0.7587890625-0.70751953125t1.0458984375-0.11279296875q1.2919921875,0,1.58935546875,0.41015625t0.29736328125,1.640625q0,4.4912109375-0.39990234375,8.94140625t-0.39990234375,8.94140625q0,2.8916015625,0.11279296875,5.81396484375t0.81005859375,5.75244140625l0.2255859375,0.205078125l0.123046875,0.369140625l-0.3076171875,0.4716796875q-0.779296875,0.4921875-1.8046875,0.4921875l-0.08203125,0q-1.0458984375,0-1.927734375-0.4921875q-0.328125-0.205078125-0.54345703125-1.22021484375t-0.33837890625-2.2353515625t-0.1845703125-2.34814453125t-0.1025390625-1.599609375q-0.7177734375,1.640625-1.95849609375,2.81982421875t-3.12744140625,1.17919921875q-1.4765625,0-2.419921875-0.6357421875t-1.46630859375-1.6201171875t-0.73828125-2.20458984375t-0.21533203125-2.43017578125z M127.83439453125,43.2275390625q0,0.4716796875,0.11279296875,1.39453125t0.35888671875,1.845703125t0.68701171875,1.640625t1.15869140625,0.7177734375q0.9638671875-0.4716796875,1.7431640625-1.56884765625t1.34326171875-2.419921875t0.8818359375-2.6455078125t0.31787109375-2.28662109375q0-1.2099609375-0.8818359375-2.009765625t-2.1123046875-0.7998046875q-0.369140625,0-0.74853515625,0.1435546875t-0.70751953125,0.328125q-0.7587890625,0.7177734375-1.17919921875,1.30224609375t-0.6357421875,1.2099609375t-0.27685546875,1.38427734375t-0.0615234375,1.763671875z M144.76708007813,43.1044921875q0-1.599609375,0.33837890625-2.90185546875t1.07666015625-2.20458984375t1.93798828125-1.40478515625t2.92236328125-0.50244140625q0.9638671875,0,1.96875,0.25634765625t1.72265625,0.95361328125q0-0.41015625,0.08203125-1.69189453125t0.205078125-2.98388671875t0.25634765625-3.568359375t0.23583984375-3.4658203125t0.1845703125-2.6865234375t0.123046875-1.23046875q0.205078125-0.5947265625,0.7587890625-0.70751953125t1.0458984375-0.11279296875q1.2919921875,0,1.58935546875,0.41015625t0.29736328125,1.640625q0,4.4912109375-0.39990234375,8.94140625t-0.39990234375,8.94140625q0,2.8916015625,0.11279296875,5.81396484375t0.81005859375,5.75244140625l0.2255859375,0.205078125l0.123046875,0.369140625l-0.3076171875,0.4716796875q-0.779296875,0.4921875-1.8046875,0.4921875l-0.08203125,0q-1.0458984375,0-1.927734375-0.4921875q-0.328125-0.205078125-0.54345703125-1.22021484375t-0.33837890625-2.2353515625t-0.1845703125-2.34814453125t-0.1025390625-1.599609375q-0.7177734375,1.640625-1.95849609375,2.81982421875t-3.12744140625,1.17919921875q-1.4765625,0-2.419921875-0.6357421875t-1.46630859375-1.6201171875t-0.73828125-2.20458984375t-0.21533203125-2.43017578125z M147.24852539063,43.2275390625q0,0.4716796875,0.11279296875,1.39453125t0.35888671875,1.845703125t0.68701171875,1.640625t1.15869140625,0.7177734375q0.9638671875-0.4716796875,1.7431640625-1.56884765625t1.34326171875-2.419921875t0.8818359375-2.6455078125t0.31787109375-2.28662109375q0-1.2099609375-0.8818359375-2.009765625t-2.1123046875-0.7998046875q-0.369140625,0-0.74853515625,0.1435546875t-0.70751953125,0.328125q-0.7587890625,0.7177734375-1.17919921875,1.30224609375t-0.6357421875,1.2099609375t-0.27685546875,1.38427734375t-0.0615234375,1.763671875z M164.1812109375,50.630859375q0-0.5947265625,0.05126953125-1.2509765625t0.09228515625-1.23046875l0.123046875-3.076171875q0.205078125-3.69140625,0.50244140625-7.259765625t0.50244140625-7.21875q0.123046875-2.009765625,0.1845703125-3.94775390625t0.1845703125-3.94775390625q-0.08203125-0.1640625-0.08203125-0.2255859375q0-0.287109375,0.21533203125-0.451171875t0.50244140625-0.27685546875t0.60498046875-0.15380859375t0.48193359375-0.041015625l0.4716796875,0q0.6357421875,0.08203125,0.9228515625,0.39990234375t0.369140625,0.7587890625t0.041015625,0.943359375t-0.041015625,0.93310546875q0,2.9736328125-0.1435546875,6.06005859375t-0.328125,6.193359375t-0.33837890625,6.2138671875t-0.15380859375,6.14208984375l0,1.435546875q0,0.9638671875-0.54345703125,1.271484375t-1.50732421875,0.3076171875q-0.8408203125,0-1.4765625-0.369140625t-0.6357421875-1.2099609375z M173.58752929688,44.19140625q0-1.435546875,0.31787109375-3.3837890625t1.07666015625-3.69140625t1.99951171875-2.96337890625t3.12744140625-1.22021484375q1.763671875,0,2.6455078125,1.01513671875t0.8818359375,2.73779296875q0,1.1279296875-0.42041015625,2.47119140625t-1.19970703125,2.54296875t-1.845703125,1.99951171875t-2.37890625,0.7998046875l-0.533203125-0.041015625q0,0.5537109375,0.1640625,1.48681640625t0.48193359375,1.85595703125t0.8203125,1.6201171875t1.22021484375,0.697265625q1.0458984375,0,2.009765625-0.8408203125t1.8251953125-1.8662109375t1.599609375-1.8662109375t1.353515625-0.8408203125q0.328125,0,0.6767578125,0.1025390625t0.3896484375,0.57421875q0,0.287109375-0.15380859375,0.4716796875t-0.27685546875,0.41015625q-0.6357421875,1.0869140625-1.38427734375,2.0712890625t-1.69189453125,1.7841796875t-2.06103515625,1.26123046875t-2.47119140625,0.46142578125q-1.763671875,0-2.9326171875-0.62548828125t-1.88671875-1.681640625t-1.03564453125-2.4404296875t-0.31787109375-2.90185546875z M177.25842773438,42.6328125l0.57421875,0.5126953125q0.41015625,0.369140625,0.8203125,0.1640625t0.73828125-0.74853515625t0.60498046875-1.34326171875t0.4921875-1.640625t0.31787109375-1.640625t0.1025390625-1.3330078125l0-0.697265625t-0.0615234375-0.73828125t-0.21533203125-0.58447265625t-0.48193359375-0.29736328125q-0.1025390625-0.0205078125-0.1845703125-0.0205078125q-0.697265625,0-1.189453125,0.8818359375q-0.533203125,0.984375-0.861328125,2.38916015625t-0.4716796875,2.88134765625t-0.1845703125,2.21484375z"/><path fill="#" d=""/></svg>
