<?xml version="1.0" standalone="no"?>
<!DOCTYPE svg PUBLIC "-//W3C//DTD SVG 20010904//EN"
 "http://www.w3.org/TR/2001/REC-SVG-20010904/DTD/svg10.dtd">
<svg version="1.0" xmlns="http://www.w3.org/2000/svg"
 width="832.000000pt" height="832.000000pt" viewBox="0 0 832.000000 832.000000"
 preserveAspectRatio="xMidYMid meet">
<metadata>
Created by potrace 1.14, written by Peter Selinger 2001-2017
</metadata>
<g transform="translate(0.000000,832.000000) scale(0.100000,-0.100000)"
fill="#000000" stroke="none">
<path d="M5038 6185 c-2 -2 -59 -6 -128 -10 -195 -10 -265 -16 -390 -30 -19
-2 -64 -7 -100 -11 -36 -3 -72 -8 -81 -9 -9 -2 -40 -6 -70 -10 -90 -10 -121
-14 -204 -25 -44 -5 -102 -13 -130 -16 -27 -3 -62 -7 -76 -9 -14 -3 -51 -7
-81 -10 -30 -3 -64 -7 -76 -10 -11 -2 -52 -7 -89 -10 -37 -4 -76 -9 -87 -11
-18 -3 -106 -14 -156 -19 -14 -2 -43 -5 -65 -8 -22 -3 -65 -9 -95 -12 -30 -3
-68 -7 -85 -9 -16 -3 -59 -7 -95 -11 -36 -3 -72 -8 -80 -10 -8 -2 -40 -7 -70
-11 -59 -7 -78 -9 -125 -17 -31 -6 -87 -14 -140 -22 -102 -15 -192 -56 -206
-94 -23 -59 22 -109 111 -127 8 -1 31 -6 50 -10 41 -9 443 -9 545 0 158 14
181 17 350 46 61 11 128 22 150 25 23 3 50 7 60 9 11 2 49 7 85 10 36 4 82 9
103 12 34 5 38 3 33 -13 -3 -10 -8 -34 -10 -53 -3 -19 -8 -51 -11 -70 -3 -19
-7 -53 -9 -75 -2 -22 -7 -60 -10 -85 -22 -164 -30 -516 -28 -1180 0 -327 2
-910 3 -1295 1 -385 0 -931 -3 -1212 l-6 -513 402 0 403 0 -3 258 c-1 141 -5
446 -8 677 -4 231 -8 602 -11 823 -3 222 -7 408 -10 412 -3 5 -1 11 3 14 5 3
6 27 2 53 -5 26 -4 53 1 59 5 6 6 14 3 17 -6 6 -10 364 -15 1522 -2 521 -7
608 -35 672 -24 53 -24 56 16 59 141 10 191 15 230 19 273 28 406 33 708 22
155 -5 280 32 313 94 37 70 2 127 -104 166 -97 36 -159 42 -419 41 -142 0
-259 -2 -260 -3z"/>
</g>
</svg>
